<mxfile host="app.diagrams.net" agent="Mozilla/5.0 (X11; Linux x86_64) AppleWebKit/537.36 (KHTML, like Gecko) Chrome/127.0.0.0 Safari/537.36" version="24.7.7">
  <diagram name="Pàgina-1" id="mhbHxmUa4zc_a_H4eHv1">
    <mxGraphModel dx="1434" dy="754" grid="1" gridSize="10" guides="1" tooltips="1" connect="1" arrows="1" fold="1" page="1" pageScale="1" pageWidth="827" pageHeight="1169" math="0" shadow="0">
      <root>
        <mxCell id="0" />
        <mxCell id="1" parent="0" />
        <mxCell id="FB9GtuEAJczlA79pJL21-5" value="&lt;font color=&quot;#0066cc&quot; style=&quot;font-size: 14px;&quot;&gt;&lt;b&gt;Ancestre comú&lt;/b&gt;&lt;/font&gt;" style="text;html=1;strokeColor=none;fillColor=none;align=center;verticalAlign=middle;whiteSpace=wrap;rounded=0;fontStyle=2" parent="1" vertex="1">
          <mxGeometry x="580" y="490" width="60" height="30" as="geometry" />
        </mxCell>
        <mxCell id="qJWmsPeaSZMSZ7GTcNxQ-1" value="&lt;div style=&quot;line-height: 100%;&quot;&gt;&lt;span style=&quot;background-color: initial;&quot;&gt;&lt;span style=&quot;font-size: 12px;&quot;&gt;&lt;i&gt;Títol&lt;/i&gt;&lt;/span&gt;&lt;/span&gt;&lt;/div&gt;&lt;div style=&quot;line-height: 100%;&quot;&gt;&lt;span style=&quot;background-color: initial;&quot;&gt;0b1b3b4&lt;/span&gt;&lt;br&gt;&lt;/div&gt;" style="rounded=1;whiteSpace=wrap;html=1;fontSize=16;fillColor=#f5f5f5;strokeColor=#666666;fontColor=#333333;" parent="1" vertex="1">
          <mxGeometry x="340" y="440" width="120" height="40" as="geometry" />
        </mxCell>
        <mxCell id="qJWmsPeaSZMSZ7GTcNxQ-6" style="rounded=0;orthogonalLoop=1;jettySize=auto;html=1;exitX=0.5;exitY=1;exitDx=0;exitDy=0;fillColor=#dae8fc;strokeColor=#6c8ebf;" parent="1" source="qJWmsPeaSZMSZ7GTcNxQ-7" target="qJWmsPeaSZMSZ7GTcNxQ-19" edge="1">
          <mxGeometry relative="1" as="geometry">
            <mxPoint x="820" y="560" as="targetPoint" />
          </mxGeometry>
        </mxCell>
        <mxCell id="qJWmsPeaSZMSZ7GTcNxQ-7" value="docs" style="ellipse;whiteSpace=wrap;html=1;fillColor=#dae8fc;strokeColor=#6c8ebf;fontSize=16;fontStyle=1" parent="1" vertex="1">
          <mxGeometry x="770" y="590" width="100" height="40" as="geometry" />
        </mxCell>
        <mxCell id="qJWmsPeaSZMSZ7GTcNxQ-8" style="edgeStyle=orthogonalEdgeStyle;rounded=0;orthogonalLoop=1;jettySize=auto;html=1;exitX=0;exitY=0.5;exitDx=0;exitDy=0;fillColor=#f5f5f5;strokeColor=#666666;" parent="1" source="qJWmsPeaSZMSZ7GTcNxQ-9" target="qJWmsPeaSZMSZ7GTcNxQ-1" edge="1">
          <mxGeometry relative="1" as="geometry" />
        </mxCell>
        <mxCell id="qJWmsPeaSZMSZ7GTcNxQ-9" value="&lt;div style=&quot;line-height: 100%;&quot;&gt;&lt;font style=&quot;font-size: 12px;&quot;&gt;Subtítol documentació&lt;/font&gt;&lt;/div&gt;1b2c5d6" style="rounded=1;whiteSpace=wrap;html=1;fontSize=16;fillColor=#f5f5f5;strokeColor=#666666;fontColor=#333333;" parent="1" vertex="1">
          <mxGeometry x="540" y="440" width="140" height="40" as="geometry" />
        </mxCell>
        <mxCell id="qJWmsPeaSZMSZ7GTcNxQ-10" style="rounded=0;orthogonalLoop=1;jettySize=auto;html=1;exitX=0.5;exitY=1;exitDx=0;exitDy=0;fillColor=#d5e8d4;strokeColor=#82b366;" parent="1" source="qJWmsPeaSZMSZ7GTcNxQ-11" target="qJWmsPeaSZMSZ7GTcNxQ-20" edge="1">
          <mxGeometry relative="1" as="geometry">
            <mxPoint x="820" y="440" as="targetPoint" />
          </mxGeometry>
        </mxCell>
        <mxCell id="qJWmsPeaSZMSZ7GTcNxQ-11" value="main" style="ellipse;whiteSpace=wrap;html=1;fillColor=#d5e8d4;strokeColor=#82b366;fontSize=16;fontStyle=1" parent="1" vertex="1">
          <mxGeometry x="770" y="365" width="100" height="40" as="geometry" />
        </mxCell>
        <mxCell id="qJWmsPeaSZMSZ7GTcNxQ-12" style="edgeStyle=orthogonalEdgeStyle;rounded=0;orthogonalLoop=1;jettySize=auto;html=1;exitX=0.5;exitY=1;exitDx=0;exitDy=0;fillColor=#f5f5f5;strokeColor=#666666;entryX=0.5;entryY=0;entryDx=0;entryDy=0;" parent="1" source="qJWmsPeaSZMSZ7GTcNxQ-13" target="qJWmsPeaSZMSZ7GTcNxQ-11" edge="1">
          <mxGeometry relative="1" as="geometry" />
        </mxCell>
        <mxCell id="qJWmsPeaSZMSZ7GTcNxQ-13" value="HEAD" style="ellipse;whiteSpace=wrap;html=1;fillColor=#f5f5f5;strokeColor=#666666;fontSize=16;fontStyle=1;fontColor=#333333;" parent="1" vertex="1">
          <mxGeometry x="770" y="290" width="100" height="40" as="geometry" />
        </mxCell>
        <mxCell id="qJWmsPeaSZMSZ7GTcNxQ-18" style="edgeStyle=orthogonalEdgeStyle;rounded=0;orthogonalLoop=1;jettySize=auto;html=1;fillColor=#f5f5f5;strokeColor=#666666;" parent="1" source="qJWmsPeaSZMSZ7GTcNxQ-20" target="qJWmsPeaSZMSZ7GTcNxQ-9" edge="1">
          <mxGeometry relative="1" as="geometry">
            <mxPoint x="760" y="460" as="sourcePoint" />
            <mxPoint x="490" y="470" as="targetPoint" />
          </mxGeometry>
        </mxCell>
        <mxCell id="qJWmsPeaSZMSZ7GTcNxQ-19" value="&lt;div style=&quot;line-height: 100%;&quot;&gt;&lt;span style=&quot;background-color: initial;&quot;&gt;&lt;span style=&quot;font-size: 12px;&quot;&gt;Documentació oficial&lt;/span&gt;&lt;/span&gt;&lt;/div&gt;&lt;div style=&quot;line-height: 100%;&quot;&gt;&lt;span style=&quot;background-color: initial;&quot;&gt;3d4e5f6&lt;/span&gt;&lt;br&gt;&lt;/div&gt;" style="rounded=1;whiteSpace=wrap;html=1;fontSize=16;fillColor=#f5f5f5;strokeColor=#666666;fontColor=#333333;" parent="1" vertex="1">
          <mxGeometry x="760" y="520" width="120" height="40" as="geometry" />
        </mxCell>
        <mxCell id="qJWmsPeaSZMSZ7GTcNxQ-20" value="&lt;div style=&quot;line-height: 100%;&quot;&gt;&lt;font style=&quot;font-size: 12px;&quot;&gt;Autor&lt;/font&gt;&lt;/div&gt;2a3b4c5" style="rounded=1;whiteSpace=wrap;html=1;fontSize=16;fillColor=#f5f5f5;strokeColor=#666666;fontColor=#333333;" parent="1" vertex="1">
          <mxGeometry x="760" y="440" width="120" height="40" as="geometry" />
        </mxCell>
        <mxCell id="qJWmsPeaSZMSZ7GTcNxQ-21" style="rounded=0;orthogonalLoop=1;jettySize=auto;html=1;fillColor=#f5f5f5;strokeColor=#666666;exitX=0;exitY=0.5;exitDx=0;exitDy=0;entryX=1;entryY=1;entryDx=0;entryDy=0;" parent="1" source="qJWmsPeaSZMSZ7GTcNxQ-19" target="qJWmsPeaSZMSZ7GTcNxQ-9" edge="1">
          <mxGeometry relative="1" as="geometry">
            <mxPoint x="770" y="470" as="sourcePoint" />
            <mxPoint x="690" y="470" as="targetPoint" />
          </mxGeometry>
        </mxCell>
      </root>
    </mxGraphModel>
  </diagram>
</mxfile>
